<mxfile host="app.diagrams.net" modified="2023-04-12T16:41:44.318Z" agent="Mozilla/5.0 (Windows NT 10.0; Win64; x64) AppleWebKit/537.36 (KHTML, like Gecko) Chrome/112.0.0.0 Safari/537.36" etag="6pX3VKpEjJnfEd5iK8Ts" version="21.1.5" type="device">
  <diagram name="Página-1" id="ybfD1WD2CeC4_JgJnlzS">
    <mxGraphModel dx="1886" dy="528" grid="1" gridSize="10" guides="1" tooltips="1" connect="1" arrows="1" fold="1" page="1" pageScale="1" pageWidth="827" pageHeight="1169" math="0" shadow="0">
      <root>
        <mxCell id="0" />
        <mxCell id="1" parent="0" />
        <mxCell id="JASO31TjAt7nixPJtF5r-24" style="edgeStyle=orthogonalEdgeStyle;rounded=0;orthogonalLoop=1;jettySize=auto;html=1;exitX=0;exitY=0.5;exitDx=0;exitDy=0;entryX=1;entryY=0.25;entryDx=0;entryDy=0;startArrow=ERmany;startFill=0;endArrow=ERmany;endFill=0;" parent="1" source="JASO31TjAt7nixPJtF5r-11" target="JASO31TjAt7nixPJtF5r-22" edge="1">
          <mxGeometry relative="1" as="geometry" />
        </mxCell>
        <mxCell id="JASO31TjAt7nixPJtF5r-10" value="Usuario" style="swimlane;childLayout=stackLayout;horizontal=1;startSize=50;horizontalStack=0;rounded=1;fontSize=14;fontStyle=0;strokeWidth=2;resizeParent=0;resizeLast=1;shadow=0;dashed=0;align=center;arcSize=4;whiteSpace=wrap;html=1;fillColor=#dae8fc;strokeColor=#6c8ebf;" parent="1" vertex="1">
          <mxGeometry x="319" y="120" width="171" height="270" as="geometry" />
        </mxCell>
        <mxCell id="JASO31TjAt7nixPJtF5r-11" value="&lt;u&gt;id_usuario&lt;/u&gt;: type int (PK)&lt;br&gt;&lt;br&gt;nombre: type string&lt;br&gt;&lt;br&gt;correo: type tring&lt;br&gt;&lt;br&gt;contraseña: type string&lt;br&gt;&lt;br&gt;rol: type string&lt;br&gt;&lt;br&gt;escuela: type string&lt;br&gt;&lt;br&gt;fecha_alta: type date" style="align=left;strokeColor=none;fillColor=none;spacingLeft=4;fontSize=12;verticalAlign=top;resizable=0;rotatable=0;part=1;html=1;" parent="JASO31TjAt7nixPJtF5r-10" vertex="1">
          <mxGeometry y="50" width="171" height="220" as="geometry" />
        </mxCell>
        <mxCell id="JASO31TjAt7nixPJtF5r-12" value="Presentacion" style="swimlane;childLayout=stackLayout;horizontal=1;startSize=50;horizontalStack=0;rounded=1;fontSize=14;fontStyle=0;strokeWidth=2;resizeParent=0;resizeLast=1;shadow=0;dashed=0;align=center;arcSize=4;whiteSpace=wrap;html=1;fillColor=#dae8fc;strokeColor=#6c8ebf;" parent="1" vertex="1">
          <mxGeometry x="309.5" y="492.5" width="190" height="215" as="geometry">
            <mxRectangle x="309.5" y="492.5" width="120" height="50" as="alternateBounds" />
          </mxGeometry>
        </mxCell>
        <mxCell id="JASO31TjAt7nixPJtF5r-13" value="&lt;u&gt;id_usuario&lt;/u&gt;: type int (FK)&lt;br&gt;&lt;br&gt;&lt;u&gt;id_presentacion&lt;/u&gt;: type int (PK)&lt;br style=&quot;border-color: var(--border-color);&quot;&gt;&lt;br&gt;titulo: type tring&lt;br&gt;&lt;br&gt;ideas: type string&lt;br&gt;&lt;br&gt;fecha_presentacion: type date" style="align=left;strokeColor=none;fillColor=none;spacingLeft=4;fontSize=12;verticalAlign=top;resizable=0;rotatable=0;part=1;html=1;" parent="JASO31TjAt7nixPJtF5r-12" vertex="1">
          <mxGeometry y="50" width="190" height="165" as="geometry" />
        </mxCell>
        <mxCell id="JASO31TjAt7nixPJtF5r-14" style="edgeStyle=orthogonalEdgeStyle;rounded=0;orthogonalLoop=1;jettySize=auto;html=1;entryX=0;entryY=0.5;entryDx=0;entryDy=0;startArrow=ERmany;startFill=0;endArrow=ERmany;endFill=0;" parent="1" source="JASO31TjAt7nixPJtF5r-18" target="JASO31TjAt7nixPJtF5r-13" edge="1">
          <mxGeometry relative="1" as="geometry" />
        </mxCell>
        <mxCell id="JASO31TjAt7nixPJtF5r-15" value="1" style="text;html=1;align=center;verticalAlign=middle;resizable=0;points=[];autosize=1;strokeColor=none;fillColor=none;" parent="1" vertex="1">
          <mxGeometry x="168" y="600" width="30" height="30" as="geometry" />
        </mxCell>
        <mxCell id="JASO31TjAt7nixPJtF5r-16" value="N" style="text;html=1;align=center;verticalAlign=middle;resizable=0;points=[];autosize=1;strokeColor=none;fillColor=none;" parent="1" vertex="1">
          <mxGeometry x="279.5" y="600" width="30" height="30" as="geometry" />
        </mxCell>
        <mxCell id="JASO31TjAt7nixPJtF5r-17" value="Evento" style="swimlane;childLayout=stackLayout;horizontal=1;startSize=50;horizontalStack=0;rounded=1;fontSize=14;fontStyle=0;strokeWidth=2;resizeParent=0;resizeLast=1;shadow=0;dashed=0;align=center;arcSize=4;whiteSpace=wrap;html=1;fillColor=#dae8fc;strokeColor=#6c8ebf;" parent="1" vertex="1">
          <mxGeometry x="-3" y="510" width="171" height="180" as="geometry" />
        </mxCell>
        <mxCell id="JASO31TjAt7nixPJtF5r-18" value="&lt;u&gt;id_evento&lt;/u&gt;: type int (PK)&lt;br&gt;&lt;br&gt;fecha_evento: type date&lt;br&gt;&lt;br&gt;duracion: type int&lt;br&gt;&lt;br&gt;tipo: type string" style="align=left;strokeColor=none;fillColor=none;spacingLeft=4;fontSize=12;verticalAlign=top;resizable=0;rotatable=0;part=1;html=1;" parent="JASO31TjAt7nixPJtF5r-17" vertex="1">
          <mxGeometry y="50" width="171" height="130" as="geometry" />
        </mxCell>
        <mxCell id="JASO31TjAt7nixPJtF5r-19" style="edgeStyle=orthogonalEdgeStyle;rounded=0;orthogonalLoop=1;jettySize=auto;html=1;exitX=0.5;exitY=1;exitDx=0;exitDy=0;entryX=0.5;entryY=0;entryDx=0;entryDy=0;startArrow=ERmany;startFill=0;endArrow=ERmany;endFill=0;" parent="1" source="JASO31TjAt7nixPJtF5r-22" target="JASO31TjAt7nixPJtF5r-17" edge="1">
          <mxGeometry relative="1" as="geometry" />
        </mxCell>
        <mxCell id="JASO31TjAt7nixPJtF5r-21" value="Asistencia" style="swimlane;childLayout=stackLayout;horizontal=1;startSize=50;horizontalStack=0;rounded=1;fontSize=14;fontStyle=0;strokeWidth=2;resizeParent=0;resizeLast=1;shadow=0;dashed=0;align=center;arcSize=4;whiteSpace=wrap;html=1;fillColor=#dae8fc;strokeColor=#6c8ebf;" parent="1" vertex="1">
          <mxGeometry y="200" width="165" height="170" as="geometry" />
        </mxCell>
        <mxCell id="JASO31TjAt7nixPJtF5r-22" value="&lt;u&gt;id_asistencia&lt;/u&gt;: type int (PK)&lt;br&gt;&lt;br&gt;&lt;u&gt;id_evento&lt;/u&gt;: type int (FK)&lt;br&gt;&lt;br&gt;&lt;u style=&quot;border-color: var(--border-color);&quot;&gt;id_usuario&lt;/u&gt;: type int (FK)" style="align=left;strokeColor=none;fillColor=none;spacingLeft=4;fontSize=12;verticalAlign=top;resizable=0;rotatable=0;part=1;html=1;" parent="JASO31TjAt7nixPJtF5r-21" vertex="1">
          <mxGeometry y="50" width="165" height="120" as="geometry" />
        </mxCell>
        <mxCell id="JASO31TjAt7nixPJtF5r-25" value="1" style="text;html=1;align=center;verticalAlign=middle;resizable=0;points=[];autosize=1;strokeColor=none;fillColor=none;" parent="1" vertex="1">
          <mxGeometry x="289" y="255" width="30" height="30" as="geometry" />
        </mxCell>
        <mxCell id="JASO31TjAt7nixPJtF5r-26" value="N" style="text;html=1;align=center;verticalAlign=middle;resizable=0;points=[];autosize=1;strokeColor=none;fillColor=none;" parent="1" vertex="1">
          <mxGeometry x="165" y="255" width="30" height="30" as="geometry" />
        </mxCell>
        <mxCell id="JASO31TjAt7nixPJtF5r-27" value="1" style="text;html=1;align=center;verticalAlign=middle;resizable=0;points=[];autosize=1;strokeColor=none;fillColor=none;" parent="1" vertex="1">
          <mxGeometry x="85" y="480" width="30" height="30" as="geometry" />
        </mxCell>
        <mxCell id="JASO31TjAt7nixPJtF5r-28" value="N" style="text;html=1;align=center;verticalAlign=middle;resizable=0;points=[];autosize=1;strokeColor=none;fillColor=none;" parent="1" vertex="1">
          <mxGeometry x="85" y="370" width="30" height="30" as="geometry" />
        </mxCell>
        <mxCell id="JASO31TjAt7nixPJtF5r-30" style="edgeStyle=orthogonalEdgeStyle;rounded=0;orthogonalLoop=1;jettySize=auto;html=1;entryX=0.5;entryY=0;entryDx=0;entryDy=0;startArrow=ERmany;startFill=0;endArrow=ERmany;endFill=0;" parent="1" source="JASO31TjAt7nixPJtF5r-11" target="JASO31TjAt7nixPJtF5r-12" edge="1">
          <mxGeometry relative="1" as="geometry" />
        </mxCell>
        <mxCell id="JASO31TjAt7nixPJtF5r-31" value="1" style="text;html=1;align=center;verticalAlign=middle;resizable=0;points=[];autosize=1;strokeColor=none;fillColor=none;" parent="1" vertex="1">
          <mxGeometry x="410" y="390" width="30" height="30" as="geometry" />
        </mxCell>
        <mxCell id="JASO31TjAt7nixPJtF5r-32" value="N" style="text;html=1;align=center;verticalAlign=middle;resizable=0;points=[];autosize=1;strokeColor=none;fillColor=none;" parent="1" vertex="1">
          <mxGeometry x="410" y="462.5" width="30" height="30" as="geometry" />
        </mxCell>
        <mxCell id="JASO31TjAt7nixPJtF5r-33" value="MSGForo" style="swimlane;childLayout=stackLayout;horizontal=1;startSize=50;horizontalStack=0;rounded=1;fontSize=14;fontStyle=0;strokeWidth=2;resizeParent=0;resizeLast=1;shadow=0;dashed=0;align=center;arcSize=4;whiteSpace=wrap;html=1;fillColor=#dae8fc;strokeColor=#6c8ebf;" parent="1" vertex="1">
          <mxGeometry x="640" y="165" width="171" height="180" as="geometry" />
        </mxCell>
        <mxCell id="JASO31TjAt7nixPJtF5r-34" value="&lt;u&gt;id_mensaje&lt;/u&gt;: type int (PK)&lt;br&gt;&lt;br&gt;&lt;u style=&quot;border-color: var(--border-color);&quot;&gt;id_usuario&lt;/u&gt;: type int (FK)&lt;br&gt;&lt;br&gt;fecha_publicacion: type date&lt;br&gt;&lt;br&gt;descripcion: type string" style="align=left;strokeColor=none;fillColor=none;spacingLeft=4;fontSize=12;verticalAlign=top;resizable=0;rotatable=0;part=1;html=1;" parent="JASO31TjAt7nixPJtF5r-33" vertex="1">
          <mxGeometry y="50" width="171" height="130" as="geometry" />
        </mxCell>
        <mxCell id="JASO31TjAt7nixPJtF5r-35" style="edgeStyle=orthogonalEdgeStyle;rounded=0;orthogonalLoop=1;jettySize=auto;html=1;entryX=0;entryY=0.5;entryDx=0;entryDy=0;exitX=1;exitY=0.5;exitDx=0;exitDy=0;startArrow=ERmany;startFill=0;endArrow=ERmany;endFill=0;" parent="1" source="JASO31TjAt7nixPJtF5r-11" target="JASO31TjAt7nixPJtF5r-34" edge="1">
          <mxGeometry relative="1" as="geometry" />
        </mxCell>
        <mxCell id="JASO31TjAt7nixPJtF5r-37" value="1" style="text;html=1;align=center;verticalAlign=middle;resizable=0;points=[];autosize=1;strokeColor=none;fillColor=none;" parent="1" vertex="1">
          <mxGeometry x="485" y="255" width="30" height="30" as="geometry" />
        </mxCell>
        <mxCell id="JASO31TjAt7nixPJtF5r-38" value="N" style="text;html=1;align=center;verticalAlign=middle;resizable=0;points=[];autosize=1;strokeColor=none;fillColor=none;" parent="1" vertex="1">
          <mxGeometry x="610" y="255" width="30" height="30" as="geometry" />
        </mxCell>
      </root>
    </mxGraphModel>
  </diagram>
</mxfile>
